<?xml version="1.0" encoding="UTF-8"?>
<svg xmlns="http://www.w3.org/2000/svg" width="2048.000000004882168" height="2026.5" viewBox="0 0 2048.000000004882168 2026.5">
  <defs>
    <style>
      .cls-1 {
        stroke-miterlimit: 10;
        fill: #80e080;
      }

      .cls-1, .cls-2, .cls-3, .cls-4 {
        stroke: #80e080;
      }

      .cls-3, .cls-4 {
        fill: none;
      }

      .cls-1, .cls-4 {
        stroke-width: 15px;
      }

      .cls-2 {
        fill: #fff;
      }

      .cls-2, .cls-3 {
        stroke-width: 60px;
      }

      .cls-2, .cls-3, .cls-4 {
        stroke-linecap: round;
        stroke-linejoin: round;
      }
    </style>
  </defs>
  <g id="yap">
    <path class="cls-3" d="M600.000000002441084,1246.5c0,138.071187449995705-111.928812549998838,249.999999999998181-249.999999999999091,249.999999999998181-138.071187449999343,0-250.000000000000909-111.928812550002476-250.000000000000909-249.999999999998181"/>
    <line class="cls-2" x1="100.000000002441084" y1="996.5" x2="100.000000002441084" y2="1246.5"/>
    <line class="cls-2" x1="600.000000002441084" y1="996.5" x2="600.000000002441084" y2="1747.749999999998181"/>
    <path class="cls-3" d="M600.000000002441084,1746.5c0,138.071187449995705-111.928812549998838,250-249.999999999999091,250-138.071187450001162,0-250.000000000000909-111.928812550004295-250.000000000000909-250"/>
    <path class="cls-2" d="M1274.000000002441084,1246.5v0Z"/>
    <ellipse class="cls-3" cx="1726.964840318877577" cy="1246.439125006759241" rx="250.000000000000909" ry="249.939125006761088"/>
    <line class="cls-2" x1="1476.964840318876668" y1="1246.439125006758331" x2="1476.964840318876668" y2="1996.5"/>
    <line class="cls-2" x1="1274" y1="1246.439125006758331" x2="1274" y2="1596.5"/>
    <ellipse class="cls-3" cx="1024.000000002441993" cy="1246.499999999999091" rx="250.000000000000909" ry="249.939125006761088"/>
  </g>
  <g id="bubble">
    <path class="cls-4" d="M1647.125000002441084,710.999999999999091H900.718750002441084l-149.28125,234.500000000000909-149.28125-234.500000000000909h-149.281250000000909c-58.197005513419754,0-105.375-47.245151774103761-105.375-105.524999999999636V113.024999999999636c0-58.279848225891328,47.177994486580246-105.524999999999636,105.375-105.524999999999636H1647.125000002441084c58.197005513427939,0,105.375,47.245151774108308,105.375,105.524999999999636v492.449999999999818c0,58.279848225895876-47.177994486572061,105.524999999999636-105.375,105.524999999999636Z"/>
  </g>
  <g id="dots">
    <ellipse class="cls-1" cx="698.750000002439947" cy="359.249999999999318" rx="58.541666666666742" ry="58.624999999999773"/>
    <ellipse class="cls-1" cx="1050.000000002440856" cy="359.249999999999318" rx="58.541666666666742" ry="58.624999999999773"/>
    <ellipse class="cls-1" cx="1401.250000002441993" cy="359.249999999999318" rx="58.54166666666697" ry="58.624999999999773"/>
  </g>
</svg>